<mxfile host="app.diagrams.net" modified="2023-10-20T10:14:55.392Z" agent="Mozilla/5.0 (Macintosh; Intel Mac OS X 10_15_7) AppleWebKit/605.1.15 (KHTML, like Gecko) Version/17.0 Safari/605.1.15" etag="2NH6EcPcyUIu5uDu4t5w" version="22.0.4" type="device">
  <diagram name="Page-1" id="SB0YJNM3gCL9ptOpXn-W">
    <mxGraphModel dx="841" dy="597" grid="1" gridSize="10" guides="1" tooltips="1" connect="1" arrows="1" fold="1" page="1" pageScale="1" pageWidth="827" pageHeight="1169" math="0" shadow="0">
      <root>
        <mxCell id="0" />
        <mxCell id="1" parent="0" />
        <mxCell id="AcuQjvImy-oClrJZ33wX-23" value="" style="rounded=0;whiteSpace=wrap;html=1;" vertex="1" parent="1">
          <mxGeometry x="130" y="80" width="620" height="440" as="geometry" />
        </mxCell>
        <mxCell id="AcuQjvImy-oClrJZ33wX-24" value="" style="sketch=0;outlineConnect=0;fontColor=#232F3E;gradientColor=none;fillColor=#7AA116;strokeColor=none;dashed=0;verticalLabelPosition=bottom;verticalAlign=top;align=center;html=1;fontSize=12;fontStyle=0;aspect=fixed;pointerEvents=1;shape=mxgraph.aws4.bucket_with_objects;" vertex="1" parent="1">
          <mxGeometry x="650" y="380" width="75" height="78" as="geometry" />
        </mxCell>
        <mxCell id="AcuQjvImy-oClrJZ33wX-25" value="" style="outlineConnect=0;dashed=0;verticalLabelPosition=bottom;verticalAlign=top;align=center;html=1;shape=mxgraph.aws3.cloudfront;fillColor=#F58536;gradientColor=none;" vertex="1" parent="1">
          <mxGeometry x="455.88" y="372.5" width="76.5" height="93" as="geometry" />
        </mxCell>
        <mxCell id="AcuQjvImy-oClrJZ33wX-26" value="" style="outlineConnect=0;dashed=0;verticalLabelPosition=bottom;verticalAlign=top;align=center;html=1;shape=mxgraph.aws3.route_53;fillColor=#F58536;gradientColor=none;" vertex="1" parent="1">
          <mxGeometry x="260" y="376.25" width="70.5" height="85.5" as="geometry" />
        </mxCell>
        <mxCell id="AcuQjvImy-oClrJZ33wX-27" value="" style="verticalLabelPosition=bottom;sketch=0;aspect=fixed;html=1;verticalAlign=top;strokeColor=none;align=center;outlineConnect=0;shape=mxgraph.citrix.laptop_2;" vertex="1" parent="1">
          <mxGeometry x="50" y="303.5" width="62.36" height="46.5" as="geometry" />
        </mxCell>
        <mxCell id="AcuQjvImy-oClrJZ33wX-28" value="User" style="sketch=0;outlineConnect=0;fontColor=#232F3E;gradientColor=none;strokeColor=#232F3E;fillColor=#ffffff;dashed=0;verticalLabelPosition=bottom;verticalAlign=top;align=center;html=1;fontSize=12;fontStyle=0;aspect=fixed;shape=mxgraph.aws4.resourceIcon;resIcon=mxgraph.aws4.user;" vertex="1" parent="1">
          <mxGeometry y="290" width="60" height="60" as="geometry" />
        </mxCell>
        <mxCell id="AcuQjvImy-oClrJZ33wX-71" style="edgeStyle=orthogonalEdgeStyle;rounded=0;orthogonalLoop=1;jettySize=auto;html=1;exitX=0;exitY=0.5;exitDx=0;exitDy=0;exitPerimeter=0;" edge="1" parent="1" source="AcuQjvImy-oClrJZ33wX-30" target="AcuQjvImy-oClrJZ33wX-29">
          <mxGeometry relative="1" as="geometry" />
        </mxCell>
        <mxCell id="AcuQjvImy-oClrJZ33wX-30" value="" style="outlineConnect=0;dashed=0;verticalLabelPosition=bottom;verticalAlign=top;align=center;html=1;shape=mxgraph.aws3.lambda;fillColor=#F58534;gradientColor=none;" vertex="1" parent="1">
          <mxGeometry x="360" y="144" width="76.5" height="93" as="geometry" />
        </mxCell>
        <mxCell id="AcuQjvImy-oClrJZ33wX-31" value="" style="outlineConnect=0;dashed=0;verticalLabelPosition=bottom;verticalAlign=top;align=center;html=1;shape=mxgraph.aws3.dynamo_db;fillColor=#2E73B8;gradientColor=none;" vertex="1" parent="1">
          <mxGeometry x="653" y="150" width="72" height="81" as="geometry" />
        </mxCell>
        <mxCell id="AcuQjvImy-oClrJZ33wX-32" value="&lt;font style=&quot;font-size: 18px;&quot;&gt;&lt;b&gt;s3_bucket&lt;/b&gt;&lt;/font&gt;" style="text;html=1;strokeColor=none;fillColor=none;align=center;verticalAlign=middle;whiteSpace=wrap;rounded=0;" vertex="1" parent="1">
          <mxGeometry x="657.5" y="461.75" width="60" height="30" as="geometry" />
        </mxCell>
        <mxCell id="AcuQjvImy-oClrJZ33wX-33" value="&lt;font style=&quot;font-size: 18px;&quot;&gt;&lt;b&gt;cloud_front&lt;/b&gt;&lt;/font&gt;" style="text;html=1;strokeColor=none;fillColor=none;align=center;verticalAlign=middle;whiteSpace=wrap;rounded=0;" vertex="1" parent="1">
          <mxGeometry x="472.38" y="465.5" width="60" height="30" as="geometry" />
        </mxCell>
        <mxCell id="AcuQjvImy-oClrJZ33wX-34" value="&lt;b&gt;&lt;font style=&quot;font-size: 18px;&quot;&gt;route_53&lt;/font&gt;&lt;/b&gt;" style="text;html=1;strokeColor=none;fillColor=none;align=center;verticalAlign=middle;whiteSpace=wrap;rounded=0;" vertex="1" parent="1">
          <mxGeometry x="270.5" y="461.75" width="60" height="30" as="geometry" />
        </mxCell>
        <mxCell id="AcuQjvImy-oClrJZ33wX-35" value="&lt;font style=&quot;font-size: 14px;&quot;&gt;&lt;b&gt;web&lt;/b&gt;&lt;/font&gt;" style="text;html=1;strokeColor=none;fillColor=none;align=center;verticalAlign=middle;whiteSpace=wrap;rounded=0;" vertex="1" parent="1">
          <mxGeometry x="150" y="330" width="60" height="30" as="geometry" />
        </mxCell>
        <mxCell id="AcuQjvImy-oClrJZ33wX-36" value="&lt;font style=&quot;font-size: 18px;&quot;&gt;&lt;b&gt;Lambda&lt;/b&gt;&lt;/font&gt;" style="text;html=1;strokeColor=none;fillColor=none;align=center;verticalAlign=middle;whiteSpace=wrap;rounded=0;" vertex="1" parent="1">
          <mxGeometry x="372.25" y="237" width="60" height="30" as="geometry" />
        </mxCell>
        <mxCell id="AcuQjvImy-oClrJZ33wX-37" value="&lt;font style=&quot;font-size: 18px;&quot;&gt;&lt;b&gt;Dynamo_DB&lt;/b&gt;&lt;/font&gt;" style="text;html=1;strokeColor=none;fillColor=none;align=center;verticalAlign=middle;whiteSpace=wrap;rounded=0;" vertex="1" parent="1">
          <mxGeometry x="665" y="230" width="60" height="30" as="geometry" />
        </mxCell>
        <mxCell id="AcuQjvImy-oClrJZ33wX-39" style="edgeStyle=orthogonalEdgeStyle;rounded=0;orthogonalLoop=1;jettySize=auto;html=1;exitX=1;exitY=0.5;exitDx=0;exitDy=0;exitPerimeter=0;entryX=0;entryY=0.5;entryDx=0;entryDy=0;entryPerimeter=0;" edge="1" parent="1" source="AcuQjvImy-oClrJZ33wX-26" target="AcuQjvImy-oClrJZ33wX-25">
          <mxGeometry relative="1" as="geometry" />
        </mxCell>
        <mxCell id="AcuQjvImy-oClrJZ33wX-40" value="" style="endArrow=classic;html=1;rounded=0;exitX=1;exitY=0.5;exitDx=0;exitDy=0;exitPerimeter=0;" edge="1" parent="1" source="AcuQjvImy-oClrJZ33wX-25" target="AcuQjvImy-oClrJZ33wX-24">
          <mxGeometry width="50" height="50" relative="1" as="geometry">
            <mxPoint x="430" y="340" as="sourcePoint" />
            <mxPoint x="480" y="290" as="targetPoint" />
          </mxGeometry>
        </mxCell>
        <mxCell id="AcuQjvImy-oClrJZ33wX-41" value="" style="sketch=0;outlineConnect=0;fontColor=#232F3E;gradientColor=none;fillColor=#DD344C;strokeColor=none;dashed=0;verticalLabelPosition=bottom;verticalAlign=top;align=center;html=1;fontSize=12;fontStyle=0;aspect=fixed;pointerEvents=1;shape=mxgraph.aws4.role;" vertex="1" parent="1">
          <mxGeometry x="372.25" y="115.51" width="50.5" height="28.49" as="geometry" />
        </mxCell>
        <mxCell id="AcuQjvImy-oClrJZ33wX-42" value="" style="sketch=0;outlineConnect=0;fontColor=#232F3E;gradientColor=none;fillColor=#7AA116;strokeColor=none;dashed=0;verticalLabelPosition=bottom;verticalAlign=top;align=center;html=1;fontSize=12;fontStyle=0;aspect=fixed;pointerEvents=1;shape=mxgraph.aws4.policy;" vertex="1" parent="1">
          <mxGeometry x="516.5" y="350.3" width="36.25" height="31.14" as="geometry" />
        </mxCell>
        <mxCell id="AcuQjvImy-oClrJZ33wX-43" value="&lt;b&gt;s3_policy&lt;/b&gt;" style="text;html=1;strokeColor=none;fillColor=none;align=center;verticalAlign=middle;whiteSpace=wrap;rounded=0;" vertex="1" parent="1">
          <mxGeometry x="504.63" y="330" width="60" height="30" as="geometry" />
        </mxCell>
        <mxCell id="AcuQjvImy-oClrJZ33wX-44" value="&lt;b&gt;IAM role&amp;nbsp;&lt;/b&gt;" style="text;html=1;strokeColor=none;fillColor=none;align=center;verticalAlign=middle;whiteSpace=wrap;rounded=0;" vertex="1" parent="1">
          <mxGeometry x="372.25" y="85.51" width="60" height="30" as="geometry" />
        </mxCell>
        <mxCell id="AcuQjvImy-oClrJZ33wX-49" value="" style="endArrow=classic;html=1;rounded=0;exitX=1;exitY=0.5;exitDx=0;exitDy=0;exitPerimeter=0;entryX=0;entryY=0.5;entryDx=0;entryDy=0;entryPerimeter=0;" edge="1" parent="1" source="AcuQjvImy-oClrJZ33wX-30" target="AcuQjvImy-oClrJZ33wX-31">
          <mxGeometry width="50" height="50" relative="1" as="geometry">
            <mxPoint x="430" y="340" as="sourcePoint" />
            <mxPoint x="480" y="290" as="targetPoint" />
          </mxGeometry>
        </mxCell>
        <mxCell id="AcuQjvImy-oClrJZ33wX-52" value="" style="endArrow=classic;html=1;rounded=0;exitX=0;exitY=0.78;exitDx=0;exitDy=0;exitPerimeter=0;entryX=1;entryY=0.79;entryDx=0;entryDy=0;entryPerimeter=0;" edge="1" parent="1" source="AcuQjvImy-oClrJZ33wX-31" target="AcuQjvImy-oClrJZ33wX-30">
          <mxGeometry width="50" height="50" relative="1" as="geometry">
            <mxPoint x="430" y="340" as="sourcePoint" />
            <mxPoint x="480" y="290" as="targetPoint" />
          </mxGeometry>
        </mxCell>
        <mxCell id="AcuQjvImy-oClrJZ33wX-55" value="" style="endArrow=classic;html=1;rounded=0;" edge="1" parent="1" source="AcuQjvImy-oClrJZ33wX-29">
          <mxGeometry width="50" height="50" relative="1" as="geometry">
            <mxPoint x="430" y="340" as="sourcePoint" />
            <mxPoint x="230" y="320" as="targetPoint" />
          </mxGeometry>
        </mxCell>
        <mxCell id="AcuQjvImy-oClrJZ33wX-56" value="" style="sketch=0;points=[[0,0,0],[0.25,0,0],[0.5,0,0],[0.75,0,0],[1,0,0],[0,1,0],[0.25,1,0],[0.5,1,0],[0.75,1,0],[1,1,0],[0,0.25,0],[0,0.5,0],[0,0.75,0],[1,0.25,0],[1,0.5,0],[1,0.75,0]];outlineConnect=0;fontColor=#232F3E;fillColor=#DD344C;strokeColor=#ffffff;dashed=0;verticalLabelPosition=bottom;verticalAlign=top;align=center;html=1;fontSize=12;fontStyle=0;aspect=fixed;shape=mxgraph.aws4.resourceIcon;resIcon=mxgraph.aws4.waf;" vertex="1" parent="1">
          <mxGeometry x="432.25" y="351.75" width="28.25" height="28.25" as="geometry" />
        </mxCell>
        <mxCell id="AcuQjvImy-oClrJZ33wX-57" value="&lt;b&gt;WAF&lt;/b&gt;" style="text;html=1;strokeColor=none;fillColor=none;align=center;verticalAlign=middle;whiteSpace=wrap;rounded=0;" vertex="1" parent="1">
          <mxGeometry x="414" y="330" width="60" height="30" as="geometry" />
        </mxCell>
        <mxCell id="AcuQjvImy-oClrJZ33wX-59" value="" style="endArrow=classic;html=1;rounded=0;" edge="1" parent="1" source="AcuQjvImy-oClrJZ33wX-27" target="AcuQjvImy-oClrJZ33wX-29">
          <mxGeometry width="50" height="50" relative="1" as="geometry">
            <mxPoint x="122" y="325" as="sourcePoint" />
            <mxPoint x="230" y="320" as="targetPoint" />
          </mxGeometry>
        </mxCell>
        <mxCell id="AcuQjvImy-oClrJZ33wX-68" style="edgeStyle=none;rounded=0;orthogonalLoop=1;jettySize=auto;html=1;" edge="1" parent="1" source="AcuQjvImy-oClrJZ33wX-29" target="AcuQjvImy-oClrJZ33wX-30">
          <mxGeometry relative="1" as="geometry" />
        </mxCell>
        <mxCell id="AcuQjvImy-oClrJZ33wX-29" value="" style="sketch=0;pointerEvents=1;shadow=0;dashed=0;html=1;strokeColor=none;fillColor=#505050;labelPosition=center;verticalLabelPosition=bottom;verticalAlign=top;outlineConnect=0;align=center;shape=mxgraph.office.concepts.website;" vertex="1" parent="1">
          <mxGeometry x="161" y="295.5" width="59" height="49" as="geometry" />
        </mxCell>
        <mxCell id="AcuQjvImy-oClrJZ33wX-64" style="edgeStyle=orthogonalEdgeStyle;rounded=0;orthogonalLoop=1;jettySize=auto;html=1;exitX=0.5;exitY=1;exitDx=0;exitDy=0;entryX=0;entryY=0.27;entryDx=0;entryDy=0;entryPerimeter=0;" edge="1" parent="1" source="AcuQjvImy-oClrJZ33wX-35" target="AcuQjvImy-oClrJZ33wX-26">
          <mxGeometry relative="1" as="geometry" />
        </mxCell>
      </root>
    </mxGraphModel>
  </diagram>
</mxfile>
